<?xml version="1.0" encoding="utf-8"?>
<!DOCTYPE svg PUBLIC "-//W3C//DTD SVG 1.1//EN" "http://www.w3.org/Graphics/SVG/1.1/DTD/svg11.dtd">
<svg version="1.1" xmlns="http://www.w3.org/2000/svg" xmlns:xlink="http://www.w3.org/1999/xlink" x="0px" y="0px" viewBox="0 0 256 256" enable-background="new 0 0 256 256" xml:space="preserve" width="40" height="40">
<g><g><g><path fill="var(--svg-fill)" d="M130.1,19.3c-1.5,0.7-3.5,1.9-4.4,2.8c-3.2,3-3.6,4.5-4.1,15.7c-1,22.8-3.6,30.8-12.6,40c-7.5,7.6-15.5,12.1-31,17.4c-8.9,3-11.9,4.5-15.8,8c-4.2,3.7-3.9,0.1-3.9,55c0,48.3,0.1,49.7,1.2,51.6c5.3,8.8,42.9,23.3,70,27.1c9.2,1.3,50,1.3,63.5-0.1c16.4-1.6,21.8-3.1,26.4-7.3c3.2-2.9,5.3-6.9,6.2-12.1c1-5.8,0.3-9.4-2.3-12.2c-1.1-1.3-2.1-2.5-2.1-2.7c0-0.1,0.6-0.4,1.4-0.7c2.2-0.5,5.9-4.5,7.7-8.3c2.2-4.7,3.4-12.6,2.5-16.8c-0.7-3.4-2.5-7.2-3.9-8.4c-0.8-0.7-0.4-1,2.8-2.7c6.6-3.4,10.1-10.4,10.1-20.6c0-7.5-2.6-13.3-6.9-15.7c-1.1-0.6-2.1-1.3-2.1-1.5s1.3-0.7,2.8-1.1c3.8-1,8.1-5.4,9.6-9.8c1.5-4.6,1-11.8-1.2-16.8c-1.9-4.2-6.2-8.6-9.8-10.2c-5.8-2.5-8-2.7-37.7-3l-28.9-0.4l0.4-1.3c2.6-8.9,2.8-23.7,0.4-32.8c-4.3-16.7-14-29.5-25.2-33.4C138.8,17.7,133.6,17.8,130.1,19.3z"/><path fill="var(--svg-fill)" d="M16.3,101c-2.4,1-5,4-5.7,6.9c-0.4,1.4-0.6,19.4-0.6,51.1v49l1.4,2.7c2.5,4.9,3.2,5.1,15.5,5.1c11.8,0,12.4-0.1,15.3-4.2c1.3-1.6,1.3-2.1,1.3-52.8v-51.1l-1.4-2.6c-2.2-4.2-4.6-5-15.2-4.9C21,100.2,17.5,100.5,16.3,101z"/></g></g></g>
</svg>