<?xml version="1.0" encoding="utf-8"?>
<!DOCTYPE svg PUBLIC "-//W3C//DTD SVG 1.1//EN" "http://www.w3.org/Graphics/SVG/1.1/DTD/svg11.dtd">
<svg version="1.1" xmlns="http://www.w3.org/2000/svg" xmlns:xlink="http://www.w3.org/1999/xlink" x="0px" y="0px" viewBox="0 0 256 256" enable-background="new 0 0 256 256" xml:space="preserve">
<g><g><g><path fill="var(--text-primary)" d="M117.2,10.4C89,13.1,63.1,25.6,43.4,46C29,60.7,19.1,78.4,13.8,98.2c-8.1,30.9-3.2,64.1,13.5,91.4c4.7,7.5,10.3,14.6,17.2,21.5c9.7,9.7,17.9,15.8,29.3,21.7c38.4,19.8,83.5,17.3,119.3-6.5c50.4-33.5,67.3-98.7,39.6-152.4c-5.9-11.3-11.9-19.6-21.7-29.3c-9.5-9.5-19-16.4-30.5-22.1C161.3,12.8,138.4,8.4,117.2,10.4z M112.7,26.4c-7.4,14.3-12.4,28-15.6,43c-0.6,2.7-1.1,4.9-1.2,5c-0.2,0.3-13.5-1.8-20.9-3.2c-10.5-2-26.1-6.2-27.4-7.3c-0.2-0.2,1.2-2.1,3-4.2c11.7-13.4,27.7-23.9,45-29.7C103.8,27.4,113.2,25.3,112.7,26.4z M149.3,27.1c13.7,2.8,28.7,9.6,40.3,18.3c7.8,5.8,19.7,17.7,18.7,18.6c-1.1,1.1-16.4,5.2-27.2,7.3c-5.6,1.2-19.3,3.3-20.8,3.3c-0.2,0-0.6-1.3-1-2.9c-2.6-13.3-8.9-31.6-14.3-41.7c-1-1.9-1.8-3.5-1.8-3.6C143.2,25.9,144.7,26.1,149.3,27.1z M130.9,34.7c3,5.6,5.9,12.2,8.3,19.4c2.4,6.9,6.1,21.3,5.6,21.7c-0.4,0.4-33.3,0.4-33.7,0c-0.8-0.8,4.5-19.5,8.2-28.6c3.1-7.8,8-17.1,8.9-16.8C128.4,30.5,129.6,32.4,130.9,34.7z M45.6,78.9c7.8,2.5,16.3,4.8,25.5,6.6c7.3,1.4,19,3.3,21.1,3.3c1.5,0,1.5-0.4,0.6,8.1c-0.4,3.6-0.8,9.5-0.9,13.1c-0.1,3.7-0.4,7.6-0.5,8.6l-0.2,2h-33H25.1v-1.3c0-4.4,2.3-15.9,4.5-22.5c2.6-7.9,8.1-20.1,9-20.1C38.9,76.8,42,77.8,45.6,78.9z M220.1,81.5c3.7,7.5,6.6,15.4,8.4,23c1,4.2,2.3,12.6,2.3,14.8v1.3h-33h-33l-0.2-1.1c-0.1-0.6-0.3-4.3-0.5-8.4c-0.2-4.1-0.6-10.3-1-13.8c-1-9.3-1.2-8.3,2.7-8.7c12.4-1.2,34.9-6.3,47.1-10.6c1.8-0.6,3.6-1.2,4-1.2C217.5,76.8,218.6,78.5,220.1,81.5z M148,92.5c0.3,2.2,1.5,17.1,1.8,23.2l0.3,5h-22.2h-22.1l0.2-3.6c0.1-1.9,0.4-5.9,0.5-8.6c0.1-2.8,0.6-7.8,1-11.2c0.3-3.4,0.6-6.2,0.6-6.2c0,0,8.9-0.1,19.8-0.1h19.8L148,92.5z M91.3,136.9c0.1,0.8,0.3,4.6,0.5,8.3c0.1,3.7,0.6,9.9,1,13.7c0.4,3.8,0.6,7.1,0.6,7.4c-0.1,0.3-3.4,1-7.6,1.6c-14.4,2.1-30.5,5.8-41.9,9.7c-2.5,0.9-4.8,1.6-5.1,1.6c-1,0-6.4-11.6-8.9-19.4c-2.4-7.2-4.7-18.5-4.7-23.2v-1.2h33H91L91.3,136.9z M149.9,138.7c-0.1,1.8-0.4,5.8-0.5,8.7c-0.2,2.9-0.6,8.1-1,11.4c-0.4,3.4-0.6,6.2-0.6,6.2c0,0-8.9,0.1-19.8,0.1c-10.9,0-19.8,0-19.8-0.1c0,0-0.3-2.8-0.6-6.2c-0.4-3.4-0.8-8.3-1-11c-0.1-2.7-0.4-6.6-0.5-8.7l-0.3-3.8H128h22.2L149.9,138.7z M230.8,136.6c0,5.1-2.5,16.7-5.2,24.6c-2,6-7.7,18-8.4,18c-0.3,0-3-0.8-6-1.8c-11.3-3.8-26.7-7.3-41-9.4c-4-0.6-7.4-1.2-7.5-1.3c-0.2-0.1,0-3.6,0.4-7.6c0.4-4,0.9-10.3,1-14c0.1-3.7,0.3-7.4,0.5-8.2l0.2-1.5h32.9h33L230.8,136.6L230.8,136.6z M144.9,180.3c0.5,0.4-2.2,11.1-4.7,18.8c-3.5,10.8-10.7,26.5-12.2,26.5c-1.3,0-7.3-12.6-10.9-22.8c-1.8-4.8-6.1-20.8-6.1-22.1c0-0.2,1.2-0.5,2.7-0.6C117.8,179.7,144.5,179.9,144.9,180.3z M97.1,186.5c2.6,12.5,7.5,26.7,12.6,37.2c1.6,3.3,2.9,6.1,2.8,6.2c-0.1,0.1-2.5-0.3-5.4-0.8c-15.9-3.2-32.7-11.3-45.6-22.1c-5.9-4.9-14.9-14.4-14.3-15.1c0.1-0.1,3.4-1.1,7.3-2.2c9.3-2.7,20.2-5.1,29.4-6.5c4-0.6,7.8-1.2,8.4-1.3C96.1,181.2,95.9,181.1,97.1,186.5z M167.6,182.5c7.9,1.1,18.3,3.1,26.1,5.1c6.2,1.6,14.2,4,14.7,4.5c0.2,0.2-1.4,2.4-3.5,4.8c-11.8,13.2-27.6,23.6-44.6,29.1c-5.8,1.9-16.4,4.4-16.8,3.9c-0.1-0.1,1.2-2.9,2.8-6.2c5.2-10.7,10-24.5,12.7-37.3c0.6-2.7,1.2-4.9,1.4-4.9C160.6,181.5,163.8,181.9,167.6,182.5z"/></g></g></g>
</svg>