<!--?xml version="1.0" encoding="utf-8"?-->
<!-- Svg Vector Icons : http://www.onlinewebfonts.com/icon -->

<svg version="1.1" xmlns="http://www.w3.org/2000/svg" xmlns:xlink="http://www.w3.org/1999/xlink" x="0px" y="0px" viewBox="0 0 256 256" enable-background="new 0 0 256 256" xml:space="preserve">
<metadata> Svg Vector Icons : http://www.onlinewebfonts.com/icon </metadata>
<g><g><path fill="#1899A0" data-title="Layer 0" xs="0" d="M52.2,123.2h33.9v10.2H52.2V123.2L52.2,123.2z"/><path fill="#1899A0" data-title="Layer 1" xs="1" d="M191.6,123.2V111h-10.2v12.2h-12.2v10.2h12.2V145h10.2v-11.5h12.2v-10.2C200.6,123.2,191.6,123.2,191.6,123.2L191.6,123.2z"/><path fill="#1899A0" data-title="Layer 2" xs="2" d="M187.8,72c-20.5,0-42.2,10.2-60.1,35.8C110.4,82.3,88,72,67.6,72C43.9,72,16.4,85.5,10,120.6V136c0,1.3,1.9,8.3,3.2,12.2C24.7,174.4,48.4,184,67.6,184c21.1,0,42.2-10.9,60.8-35.8c17.9,26.2,39.7,35.8,60.1,35.8c28.8,0,57.6-22.4,57.6-56.3C246,95.7,219.1,72,187.8,72L187.8,72z M111,137.3c-14.7,19.2-27.5,26.9-43.5,26.9c-1.3,0-6.4-0.7-9.6-1.3c-12.2-0.7-28.2-19.8-28.2-27.5v-14.7c4.5-21.7,23.7-28.8,37.7-28.8c7.7,0,7-1.3,16,2.6c5.1,1.9,10.9,6.4,16.6,10.9c0,0,16.6,19.2,16.6,22.4C116.8,129.6,113,134.1,111,137.3L111,137.3z M188.4,164.1c-15.3,0-26.9-5.8-42.2-24.3c-2.6-3.8-6.4-10.2-6.4-12.2c0-1.3,3.8-7.7,6.4-11.5c12.8-17.9,26.8-24.3,42.2-24.3c20.5,0,38.4,14.7,38.4,35.8C226.8,150.1,207,164.1,188.4,164.1L188.4,164.1z"/></g></g>
</svg>