<?xml version="1.0" encoding="utf-8"?>
<!DOCTYPE svg PUBLIC "-//W3C//DTD SVG 1.1//EN" "http://www.w3.org/Graphics/SVG/1.1/DTD/svg11.dtd">
<svg version="1.1" xmlns="http://www.w3.org/2000/svg" xmlns:xlink="http://www.w3.org/1999/xlink" x="0px" y="0px" viewBox="0 0 256 256" enable-background="new 0 0 256 256" xml:space="preserve" width="40" height="40">
<g><g><g><path fill="var(--svg-fill)" d="M10.8,16.5C7.3,26,17.7,95,23.7,101c3,3,8.4,1.5,13.9-3.5c8.9-7.9,9.9-7.9,18.9,2c18.9,20.9,26.3,21.9,44.7,4c9.4-8.9,16.9-17.9,16.9-20.4c0-2-6.5-10.9-14.9-20.4c-13.4-15.4-13.9-17.4-6-24.8C108.6,26,101.2,21,63.4,15C20.7,8.1,13.7,8.1,10.8,16.5z"/><path fill="var(--svg-fill)" d="M187.6,15c-32.8,5.5-39.7,11.4-28.8,22.9c7.9,7.5,7.4,9.4-6,24.8c-8.4,9.4-14.9,18.4-14.9,20.4c0,2.5,7.5,11.4,16.9,20.4c18.4,17.9,25.8,16.9,44.7-4c8.9-9.9,9.9-9.9,18.9-2c5.5,5,10.9,6.5,13.9,3.5c6-6,16.4-75,12.9-84.5C242.3,8.6,228.8,8.6,187.6,15z"/><path fill="var(--svg-fill)" d="M61.9,153.6c-15.4,13.4-17.4,13.9-24.8,6c-12.4-11.9-17.4-3.5-23.8,40.2c-4,27.3-4.5,40.2-0.5,44.2c6,6,79.5-3,87.4-10.9c3-3,1.5-7.9-3.5-13.9c-7.9-8.9-7.9-9.9,2-18.9c20.9-18.9,21.9-26.3,4-44.7c-8.9-9.4-17.9-16.9-20.4-16.9C80.3,138.7,71.4,145.2,61.9,153.6z"/><path fill="var(--svg-fill)" d="M153.3,155.6c-17.9,18.4-16.9,25.8,4,44.7c9.9,8.9,9.9,9.9,2,18.9c-5,6-6.5,10.9-3.5,13.9c7.9,8,81.5,16.9,87.4,10.9c4-4,3.5-16.9-0.5-44.2c-6.5-43.7-11.4-52.2-23.8-40.2c-7.5,7.9-9.4,7.5-24.8-6c-9.4-8.4-18.4-14.9-20.4-14.9C171.2,138.7,162.3,146.2,153.3,155.6z"/></g></g></g>
</svg>