<?xml version="1.0" encoding="utf-8"?>
<!DOCTYPE svg PUBLIC "-//W3C//DTD SVG 1.1//EN" "http://www.w3.org/Graphics/SVG/1.1/DTD/svg11.dtd">
<svg version="1.1" xmlns="http://www.w3.org/2000/svg" xmlns:xlink="http://www.w3.org/1999/xlink" x="0px" y="0px" viewBox="0 0 256 256" enable-background="new 0 0 256 256" xml:space="preserve" width="40" height="40">
<g><g><path fill="var(--svg-fill)" d="M246,28.6c-0.7,21.9-5.4,43-13.3,63.4c-9.4,24.4-23.3,45.9-42.6,63.7c-1.6,1.4-2.1,3-1.9,5c0.7,6.6,1.2,13.1,1.9,19.7c1.6,15.3-3.8,27.9-16.1,36.8c-13.2,9.5-27,18.3-40.7,27.3c-8.6,5.6-19.2,0.5-20.2-9.7c-1.1-11.7-2-23.5-2.8-35.3c-0.4-5.9-0.2-5.9-5.9-6.7c-15.1-2-27-9.2-35.1-22.2c-4.2-6.7-6.3-14.1-7-21.9c-0.2-2.3-1.2-2.9-3.4-3.1c-12.2-0.7-24.5-1.4-36.7-2.3c-10.2-0.8-15.3-11.5-9.9-20.4c3.9-6.3,7.9-12.4,11.9-18.7c4.3-6.7,8.5-13.4,12.8-20.1c7.8-12.2,19.1-18.9,33.5-18.9c8.3-0.1,16.5,1.4,24.8,2.3c1.6,0.2,2.7,0,3.8-1.3c19.1-21.4,42.9-35.9,69.7-45.6c15.2-5.5,30.8-9,46.8-10.7c8.1-0.8,16.2-1.1,24.3,0.4c4.4,0.8,4.6,1,5.3,5.3C245.6,19.9,246.2,24.2,246,28.6L246,28.6z M199.7,82.6c0.2-14.4-11.8-26.9-26-27.1c-14.8-0.2-27.6,10.5-27.9,27.3c-0.3,14,12.4,26.7,26.5,26.8C187.4,109.6,199.6,97.7,199.7,82.6L199.7,82.6z"/><path fill="var(--svg-fill)" d="M40.9,165.1c3.6,0,5.6,1.6,6.9,5.3c5.1,14.5,14.4,25.5,27.8,33c3,1.6,6.1,3,9.3,4.1c5.8,2,7.1,7.6,2.8,12c-6.4,6.4-12.8,12.8-19.2,19.2c-2.1,2.1-4.4,3.1-7.4,2c-3-1.1-4.5-3.3-4.6-6.5c-0.1-2,0-4-0.1-5.9c-0.1-3.6-0.1-3.7-3.5-2.6c-7.2,2.4-14.3,4.8-21.5,7.2c-2.1,0.7-4.2,1-6.3-0.2c-3-1.7-4.2-4.8-3-8.5c2.4-7.4,4.9-14.7,7.3-22c1.1-3.2,1-3.3-2.5-3.3c-2.1,0-4.2,0-6.2-0.1c-3-0.1-5.2-1.6-6.3-4.5c-1.1-2.8-0.4-5.2,1.6-7.3c6.6-6.7,13.3-13.4,20-20C37.6,165.7,39.2,164.9,40.9,165.1L40.9,165.1z"/></g></g>
</svg>