<?xml version="1.0" encoding="utf-8"?>
<svg xmlns="http://www.w3.org/2000/svg" viewBox="196.538 51.313 182.441 125.319">
  <defs>
    <polygon id="path-1" points="0 0 30.9892553 0 30.9892553 17.996834 0 17.996834"/>
  </defs>
  <title>mbot</title>
  <desc>Created with Sketch.</desc>
  <g stroke="none" stroke-width="1" fill="none" fill-rule="evenodd" transform="matrix(1, 0, 0, 1, 172.70134, 155.626694)" style="transform-origin: 15.4946px 8.9984px;">
    <g id="Artboard-2" transform="translate(-62.000000, -360.000000)">
      <g id="mbot" transform="matrix(6.527646, 0, 0, 6.527646, 62, 260.519836)" style="">
        <mask id="mask-2" fill="white">
          <polygon points="0 0 30.9892553 0 30.9892553 17.996834 0 17.996834"/>
        </mask>
        <g id="Clip-2"/>
        <path d="M 14.88 10.968 C 14.752 10.938 14.624 10.961 14.52 11.021 C 14.416 11.082 14.337 11.181 14.306 11.303 C 14.24 11.565 14.055 11.791 13.799 11.952 C 13.543 12.113 13.217 12.208 12.866 12.208 C 12.509 12.208 12.071 11.871 11.691 11.54 C 11.311 11.208 10.988 10.884 10.859 10.908 C 10.731 10.932 10.624 11.004 10.557 11.101 C 10.489 11.198 10.46 11.319 10.485 11.442 C 10.586 11.928 10.886 12.347 11.309 12.644 C 11.732 12.942 12.277 13.118 12.866 13.118 C 13.434 13.118 13.966 12.95 14.386 12.666 C 14.805 12.381 15.113 11.981 15.23 11.517 C 15.261 11.395 15.237 11.272 15.174 11.173 C 15.111 11.074 15.008 10.997 14.88 10.968 M 22.824 17.328 C 22.753 17.348 22.679 17.364 22.604 17.375 C 22.529 17.386 22.452 17.391 22.373 17.391 L 14.11 17.391 L 5.846 17.391 C 5.403 17.391 5 17.213 4.707 16.927 C 4.415 16.641 4.234 16.246 4.234 15.811 L 4.234 13.399 L 4.234 10.986 C 4.234 10.727 4.299 10.482 4.413 10.266 C 4.526 10.05 4.69 9.862 4.888 9.718 C 5.13 9.884 5.398 10.015 5.685 10.106 C 5.972 10.196 6.277 10.245 6.594 10.245 L 14.096 10.205 L 21.598 10.165 C 20.989 10.481 20.643 11.901 20.713 13.361 C 20.782 14.822 21.266 16.321 22.317 16.794 M 29.923 13.237 C 29.923 12.687 29.836 12.172 29.685 11.733 C 29.534 11.294 29.318 10.932 29.062 10.686 C 29.011 10.637 28.958 10.593 28.904 10.553 C 28.85 10.514 28.795 10.479 28.738 10.45 C 28.723 10.44 28.706 10.43 28.687 10.421 C 28.667 10.412 28.645 10.404 28.62 10.396 C 28.62 10.396 28.619 10.396 28.618 10.396 C 28.617 10.395 28.617 10.395 28.616 10.395 C 28.576 10.38 28.535 10.368 28.494 10.358 C 28.453 10.348 28.411 10.341 28.368 10.337 C 28.293 10.323 28.22 10.314 28.152 10.308 C 28.083 10.302 28.018 10.299 27.957 10.299 C 27.789 10.299 27.652 10.319 27.557 10.338 C 27.463 10.358 27.41 10.377 27.41 10.377 L 27.41 10.378 L 27.409 10.378 C 27.023 10.499 26.683 10.857 26.44 11.362 C 26.197 11.868 26.05 12.523 26.05 13.237 C 26.05 13.936 26.19 14.577 26.424 15.078 C 26.658 15.579 26.985 15.94 27.358 16.079 L 27.358 16.08 L 27.358 16.08 C 27.358 16.08 27.359 16.08 27.359 16.08 C 27.36 16.08 27.361 16.081 27.362 16.081 C 27.382 16.088 27.401 16.094 27.421 16.1 C 27.44 16.106 27.46 16.111 27.479 16.116 C 27.497 16.12 27.514 16.124 27.532 16.127 C 27.549 16.13 27.567 16.133 27.585 16.135 C 27.645 16.146 27.714 16.157 27.789 16.165 C 27.865 16.173 27.947 16.178 28.033 16.178 C 28.114 16.178 28.197 16.174 28.281 16.162 C 28.366 16.151 28.451 16.133 28.534 16.106 C 28.536 16.106 28.537 16.105 28.538 16.105 C 28.539 16.104 28.541 16.104 28.542 16.103 C 28.934 15.99 29.279 15.634 29.526 15.126 C 29.774 14.619 29.923 13.959 29.923 13.237 M 30.989 13.213 C 30.989 14.387 30.655 15.46 30.101 16.286 C 29.547 17.112 28.775 17.691 27.898 17.875 C 27.895 17.876 27.892 17.876 27.889 17.877 C 27.886 17.878 27.883 17.879 27.88 17.88 C 27.694 17.923 27.503 17.953 27.315 17.971 C 27.126 17.989 26.939 17.997 26.759 17.997 C 26.568 17.997 26.384 17.988 26.215 17.975 C 26.045 17.962 25.891 17.944 25.757 17.926 C 25.672 17.918 25.588 17.907 25.505 17.893 C 25.422 17.878 25.34 17.86 25.258 17.838 C 25.256 17.837 25.253 17.837 25.252 17.837 C 25.25 17.836 25.249 17.836 25.249 17.836 C 24.986 17.764 24.732 17.657 24.493 17.518 C 24.253 17.379 24.027 17.208 23.818 17.01 C 23.365 16.579 22.991 16.019 22.73 15.372 C 22.469 14.725 22.322 13.991 22.322 13.213 C 22.322 12.051 22.65 10.987 23.195 10.165 C 23.739 9.342 24.499 8.76 25.363 8.563 L 25.364 8.562 L 25.365 8.561 L 25.366 8.561 L 25.366 8.561 C 25.38 8.557 25.503 8.526 25.714 8.496 C 25.925 8.465 26.224 8.436 26.59 8.436 C 26.726 8.436 26.872 8.44 27.025 8.449 C 27.179 8.459 27.341 8.474 27.509 8.496 C 27.58 8.501 27.651 8.509 27.72 8.519 C 27.79 8.53 27.86 8.542 27.928 8.558 C 27.951 8.563 27.974 8.568 27.996 8.574 C 28.019 8.579 28.042 8.585 28.064 8.591 C 28.066 8.591 28.067 8.592 28.069 8.592 C 28.07 8.592 28.072 8.592 28.073 8.593 C 28.129 8.605 28.179 8.618 28.223 8.633 C 28.267 8.647 28.305 8.663 28.338 8.68 C 28.479 8.733 28.616 8.796 28.75 8.87 C 28.883 8.943 29.012 9.026 29.137 9.118 C 29.691 9.526 30.154 10.112 30.478 10.815 C 30.803 11.518 30.989 12.337 30.989 13.213 M 24.795 7.75 L 24.865 7.732 L 24.934 7.713 C 24.959 7.705 24.983 7.698 25.008 7.692 C 25.032 7.685 25.057 7.679 25.082 7.673 L 25.098 7.668 L 25.114 7.664 C 25.144 7.656 25.299 7.616 25.553 7.579 C 25.807 7.541 26.16 7.506 26.59 7.506 C 26.758 7.506 26.928 7.511 27.098 7.522 C 27.268 7.533 27.439 7.549 27.609 7.571 C 27.723 7.58 27.837 7.594 27.951 7.614 C 28.064 7.633 28.177 7.657 28.289 7.687 C 28.37 7.705 28.447 7.725 28.519 7.749 C 28.59 7.772 28.658 7.798 28.722 7.828 C 28.801 7.859 28.879 7.893 28.957 7.929 C 29.035 7.965 29.112 8.004 29.188 8.045 L 29.188 8.041 L 29.188 8.038 C 29.188 7.567 28.999 7.142 28.693 6.834 C 28.388 6.525 27.966 6.335 27.501 6.335 C 27.497 6.335 27.493 6.335 27.489 6.335 C 27.485 6.335 27.481 6.335 27.477 6.335 L 25.642 6.361 L 23.807 6.387 L 23.807 6.853 L 23.807 7.319 C 23.807 7.505 23.789 7.687 23.755 7.863 C 23.721 8.04 23.671 8.21 23.606 8.374 C 23.789 8.239 23.981 8.119 24.179 8.016 C 24.377 7.913 24.581 7.826 24.79 7.757 L 24.792 7.753 L 24.795 7.75 M 17.234 2.801 C 16.824 2.801 16.452 2.99 16.183 3.296 C 15.914 3.602 15.748 4.024 15.748 4.491 C 15.748 4.958 15.914 5.38 16.183 5.686 C 16.452 5.992 16.824 6.181 17.234 6.181 C 17.645 6.181 18.016 5.992 18.285 5.686 C 18.554 5.38 18.72 4.958 18.72 4.491 C 18.72 4.024 18.554 3.602 18.285 3.296 C 18.016 2.99 17.645 2.801 17.234 2.801 M 9.402 2.801 C 8.991 2.801 8.62 2.99 8.351 3.296 C 8.082 3.602 7.916 4.024 7.916 4.491 C 7.916 4.958 8.082 5.38 8.351 5.686 C 8.62 5.992 8.992 6.181 9.402 6.181 C 9.813 6.181 10.184 5.992 10.453 5.686 C 10.722 5.38 10.888 4.958 10.888 4.491 C 10.888 4.024 10.722 3.602 10.453 3.296 C 10.184 2.99 9.812 2.801 9.402 2.801 M 24.768 2.28 L 24.288 2.28 L 23.807 2.28 L 23.807 3.835 L 23.807 5.39 L 25.118 5.372 L 26.428 5.354 C 26.428 5.353 26.428 5.352 26.428 5.352 C 26.428 5.351 26.428 5.35 26.428 5.349 L 26.428 4.628 L 26.428 3.907 C 26.428 3.458 26.242 3.051 25.942 2.756 C 25.642 2.462 25.227 2.28 24.768 2.28 M 19.781 4.701 C 19.781 3.835 19.423 3.051 18.844 2.483 C 18.265 1.916 17.465 1.565 16.581 1.565 C 15.697 1.565 14.897 1.916 14.318 2.483 C 13.738 3.051 13.38 3.835 13.38 4.701 C 13.38 5.567 13.738 6.351 14.318 6.919 C 14.897 7.486 15.697 7.837 16.581 7.837 C 17.465 7.837 18.265 7.486 18.844 6.919 C 19.423 6.351 19.781 5.567 19.781 4.701 M 11.825 4.551 C 11.825 3.685 11.467 2.901 10.888 2.334 C 10.308 1.766 9.508 1.415 8.624 1.415 C 7.74 1.415 6.94 1.766 6.361 2.334 C 5.782 2.901 5.424 3.685 5.424 4.551 C 5.424 5.417 5.782 6.201 6.361 6.769 C 6.94 7.336 7.741 7.687 8.624 7.687 C 9.508 7.687 10.308 7.336 10.888 6.769 C 11.467 6.201 11.825 5.417 11.825 4.551 M 22.821 1.959 L 22.821 4.639 L 22.821 7.319 C 22.821 7.857 22.596 8.347 22.234 8.702 C 21.871 9.058 21.372 9.278 20.822 9.278 L 13.708 9.278 L 6.594 9.278 C 6.045 9.278 5.545 9.058 5.182 8.702 C 4.82 8.347 4.595 7.858 4.595 7.319 L 4.595 4.639 L 4.595 1.959 C 4.595 1.421 4.82 0.931 5.182 0.576 C 5.545 0.221 6.045 0 6.594 0 L 13.708 0 L 20.822 0 C 21.372 0 21.871 0.221 22.234 0.576 C 22.596 0.931 22.821 1.421 22.821 1.959" id="Fill-1" mask="url(#mask-2)" style="fill: rgb(0, 56, 189);"/>
      </g>
    </g>
  </g>
</svg>