<?xml version="1.0" encoding="utf-8"?>
<!-- Svg Vector Icons : http://www.onlinewebfonts.com/icon -->
<!DOCTYPE svg PUBLIC "-//W3C//DTD SVG 1.1//EN" "http://www.w3.org/Graphics/SVG/1.1/DTD/svg11.dtd">
<svg version="1.1" xmlns="http://www.w3.org/2000/svg" xmlns:xlink="http://www.w3.org/1999/xlink" x="0px" y="0px" viewBox="0 0 256 256" enable-background="new 0 0 256 256" xml:space="preserve">
<metadata> Svg Vector Icons : http://www.onlinewebfonts.com/icon </metadata>
<g><g><g><path fill="#000000" d="M67,6.3c-9.4,1.1-18.4,4.6-24.3,9.4c-6,4.9-10.5,13.3-12,22.5c-0.6,4.3-0.7,15.1,0,21.8c2.9,28.6,3.2,39,1.3,44.4c-0.6,1.8-1.9,3.6-3.9,5.6c-3.5,3.5-7.1,5-13.7,6l-4.4,0.6V128v11.5l4.4,0.6c8.9,1.2,13.9,4.1,16.8,9.8c1.6,3.2,1.9,4.1,2.1,8.8c0.3,5.6-0.3,14-2.1,32c-2.6,26-0.2,38.1,9.6,47.8c8.3,8.3,19.7,11.7,39.1,11.7h7.2v-12.7v-12.6l-4.9-0.4c-7.2-0.5-10.2-1.6-13.5-4.8c-4.5-4.4-5.2-7-5.2-18.1c0-5.6,0.3-11.6,0.9-15.7c3.7-27.2,1.4-42-7.5-50c-3-2.7-8.5-5.4-13.4-6.7c-2-0.5-3.7-1.1-3.7-1.2s1.6-0.7,3.5-1.2c12.2-3.3,19.2-10.4,21.8-22.2c1.1-5.2,1.1-18.9,0-28.7c-0.4-3.9-1.1-9.7-1.4-12.8c-0.9-7.6-0.4-16.4,1-20.3c2.7-7.5,8.6-11,18.6-11.1h3.8v-13v-13L79,5.8C74.5,5.9,69.2,6.1,67,6.3z"/><path fill="#000000" d="M168.9,18.7v12.9l5.6,0.3c5.1,0.2,6.1,0.5,9.2,2c6.2,3.2,8.5,7.7,8.9,17.8c0.3,5.6,0.1,7.8-1.8,23.7c-1.2,9.8-1.2,24-0.1,29.2c2.6,11.5,9.9,19,21.8,22.2c2,0.5,3.6,1.1,3.6,1.2s-1.6,0.7-3.7,1.2c-8.7,2.2-15.8,7.4-18.8,13.7c-2.9,6-3.7,10.5-3.7,21c0,5.3,0.4,12.8,0.9,16.7c1.9,15.8,2,18,1.8,23.9c-0.3,8-1.5,11.4-5.4,15.1c-3.3,3.2-6.3,4.4-13.4,4.8l-4.9,0.4v12.6v12.7h7.2c19.4,0,30.7-3.4,39.1-11.7c3.2-3.1,4.5-4.9,6.2-8.5c3-6.1,3.8-10.1,4.2-18.9c0.3-7.8-0.2-15.7-2-34.2c-1.3-12.4-1.2-20.9,0.4-25.2c0.6-1.8,1.9-3.6,3.9-5.6c3.5-3.5,7.1-5,13.8-6l4.4-0.6v-11.6v-11.6h-1.6c-3.2,0-9.9-1.7-12.9-3.3c-6-3.1-8.4-7.8-8.8-16.3c-0.2-5.4,0.1-9.1,1.8-26.3c1.2-12,1.6-26.4,0.9-31.5c-0.6-4.3-2.4-10.2-3.9-13.2c-1.8-3.3-5.9-8.2-9-10.6C203.8,8.5,193,5.8,176,5.8h-7.1L168.9,18.7L168.9,18.7z"/></g></g></g>
</svg>