<?xml version="1.0" encoding="utf-8"?>
<!-- Svg Vector Icons : http://www.onlinewebfonts.com/icon -->
<!DOCTYPE svg PUBLIC "-//W3C//DTD SVG 1.1//EN" "http://www.w3.org/Graphics/SVG/1.1/DTD/svg11.dtd">
<svg version="1.1" xmlns="http://www.w3.org/2000/svg" xmlns:xlink="http://www.w3.org/1999/xlink" x="0px" y="0px" viewBox="0 0 256 256" enable-background="new 0 0 256 256" xml:space="preserve">
<metadata> Svg Vector Icons : http://www.onlinewebfonts.com/icon </metadata>
<g><g><g><path fill="#000000" d="M69.6,10.2c-0.5,0.2-1.3,0.9-1.8,1.4c-0.9,1-0.9,1.8-1.1,13.7L66.5,38h4.6h4.6l0.1-6.6c0.1-3.6,0-9.3-0.1-12.7c-0.2-5.8-0.3-6.2-1.4-7.3C73.1,10.2,71,9.6,69.6,10.2z"/><path fill="#000000" d="M98,10.2c-0.6,0.2-1.6,0.9-2.1,1.6c-0.9,1.2-1,2-1.1,13.8L94.7,38h4.9h4.9l-0.1-12.7l-0.1-12.7l-1.2-1.2C101.8,10.2,99.8,9.7,98,10.2z"/><path fill="#000000" d="M126.3,10.2c-0.6,0.2-1.4,1-2,1.7c-0.9,1.2-1,1.7-1,13.6V38h4.6h4.6V25.5V13l-1.2-1.4C130,10.2,127.9,9.6,126.3,10.2z"/><path fill="#000000" d="M154.8,10.2c-0.6,0.1-1.6,0.9-2.1,1.6c-0.9,1.2-1,2-1.1,13.8L151.5,38h4.9h4.8V26.5c0-11.6-0.3-14.2-1.8-15.4C158.5,10.2,156.3,9.8,154.8,10.2z"/><path fill="#000000" d="M183.1,10.2c-0.6,0.2-1.4,1-2,1.7c-0.9,1.2-1,1.7-1,13.6V38h4.6h4.7l-0.1-12.7l-0.1-12.7l-1.2-1.2C186.7,10.1,184.6,9.6,183.1,10.2z"/><path fill="#000000" d="M52.5,44.2c-3.6,1.5-7.1,5-8.4,8.7l-1,2.7V128v72.4l1,2.7c1.4,3.6,5.2,7.5,8.9,8.9l2.7,1H128h72.4l2.7-1c3.6-1.4,7.5-5.2,8.9-8.9l1-2.7V128V55.6l-1-2.7c-1.4-3.6-5.2-7.5-8.9-8.9l-2.7-1h-72.6H55.3L52.5,44.2z M200,53.1c0.9,0.4,2,1.4,2.5,2.1l1,1.3V128v71.5l-1,1.3c-0.5,0.7-1.7,1.7-2.5,2.1c-1.5,0.8-5.9,0.8-72,0.8c-66.1,0-70.5,0-72-0.8c-0.9-0.4-2-1.4-2.5-2.1l-1-1.3V128V56.5l1-1.3c0.5-0.7,1.7-1.7,2.5-2.1c1.5-0.8,5.9-0.8,72-0.8S198.5,52.3,200,53.1z"/><path fill="#000000" d="M83.8,90.6c-0.6,0.2-1.4,1-2,1.7l-1,1.2v34.5v34.6l1.3,1.5l1.3,1.5H128h44.4l1.3-1.5l1.3-1.5V128V93.4l-1.3-1.5l-1.3-1.5l-43.8-0.1C104.5,90.2,84.4,90.4,83.8,90.6z M165.8,128v28.2H128H90.1V128V99.8H128h37.9V128z"/><path fill="#000000" d="M12.8,67c-1.7,0.7-2.8,2.4-2.8,4.3c0,1.5,0.3,2.1,1.5,3.2l1.5,1.3h12.5H38v-4.6v-4.6l-12.1,0C19.2,66.6,13.3,66.8,12.8,67z"/><path fill="#000000" d="M218,71.2v4.6l6.6,0.1c3.6,0.1,9.3,0,12.7-0.1c5.9-0.2,6.2-0.3,7.4-1.5c1.8-1.8,1.8-4.4,0-6.2l-1.2-1.3l-12.7-0.1L218,66.6L218,71.2L218,71.2z"/><path fill="#000000" d="M13.2,95.3c-2.1,0.6-3.1,1.9-3.1,4.3c0,1.1,0.3,2.4,0.6,2.8c1.5,1.8,3.2,2,15.4,2H38v-4.8v-4.8l-11.6,0C19.9,94.8,14,95,13.2,95.3z"/><path fill="#000000" d="M218,99.7v4.8l12.7-0.1l12.7-0.1l1.2-1.3c1.1-1,1.3-1.7,1.2-3.3c-0.1-4.5-1.4-4.8-16.1-4.8H218V99.7z"/><path fill="#000000" d="M11.5,124.7c-1.2,1.1-1.5,1.7-1.5,3.3c0,1.6,0.3,2.2,1.5,3.3l1.5,1.3h12.5h12.5V128v-4.6H25.5H13L11.5,124.7z"/><path fill="#000000" d="M218,128v4.6h12.5h12.5l1.5-1.3c1.2-1.1,1.5-1.7,1.5-3.3s-0.3-2.2-1.5-3.3l-1.5-1.3h-12.5H218V128z"/><path fill="#000000" d="M13.2,151.9c-1.8,0.4-3.2,2.3-3.1,4.5c0.1,4.5,1.4,4.8,16.1,4.8H38v-4.8v-4.8l-11.9,0C19.5,151.6,13.7,151.8,13.2,151.9z"/><path fill="#000000" d="M218,156.4v4.9l12.4-0.1c11.7-0.1,12.5-0.2,13.7-1.1c2.4-1.8,2.4-5.5,0-7.3c-1.2-0.9-1.9-1-13.7-1.1l-12.4-0.1V156.4z"/><path fill="#000000" d="M18.5,180.2c-5.7,0.2-6,0.3-7.2,1.5c-1.8,1.8-1.8,4.5,0,6.2l1.2,1.3l12.7,0.1l12.7,0.1v-4.6v-4.6l-6.8-0.1C27.4,180,21.7,180,18.5,180.2z"/><path fill="#000000" d="M218,184.8v4.7l12.7-0.1l12.7-0.1l1.2-1.3c1.9-1.8,1.8-4.6-0.2-6.4l-1.5-1.3h-12.5H218V184.8z"/><path fill="#000000" d="M66.7,230.7l0.1,12.7l1.3,1.2c1.8,1.9,4.6,1.8,6.4-0.2l1.3-1.5v-12.5V218h-4.6h-4.7L66.7,230.7z"/><path fill="#000000" d="M94.8,230.4c0.1,11.8,0.2,12.5,1.1,13.7c1.8,2.4,5.5,2.4,7.3,0c0.9-1.2,1-2,1.1-13.7l0.1-12.4h-4.9h-4.9L94.8,230.4z"/><path fill="#000000" d="M123.4,230.5V243l1.3,1.5c1.1,1.2,1.7,1.5,3.3,1.5c1.6,0,2.2-0.3,3.3-1.5l1.3-1.5v-12.5V218H128h-4.6V230.5z"/><path fill="#000000" d="M151.6,230.7l0.1,12.7l1.3,1.2c1,1.1,1.7,1.3,3.3,1.2c4.5-0.1,4.8-1.4,4.8-16.1V218h-4.9h-4.8L151.6,230.7z"/><path fill="#000000" d="M180.1,224.6c-0.1,3.6,0,9.4,0.1,12.7c0.2,5.9,0.3,6.2,1.5,7.4c1.8,1.8,4.4,1.8,6.2,0l1.3-1.2l0.1-12.7l0.1-12.7h-4.6h-4.6L180.1,224.6z"/></g></g></g>
</svg>