<?xml version="1.0" standalone="no"?>
<!DOCTYPE svg PUBLIC "-//W3C//DTD SVG 20010904//EN"
 "http://www.w3.org/TR/2001/REC-SVG-20010904/DTD/svg10.dtd">
<svg version="1.0" xmlns="http://www.w3.org/2000/svg"
 width="512.000000pt" height="512.000000pt" viewBox="0 0 512.000000 512.000000"
 preserveAspectRatio="xMidYMid meet">
<metadata>
Created by potrace 1.16, written by Peter Selinger 2001-2019
</metadata>
<g transform="translate(0.000000,512.000000) scale(0.100000,-0.100000)"
fill="var(--text-primary)" stroke="none">
<path d="M2378 4905 c-2 -2 -33 -6 -69 -9 -36 -4 -76 -8 -90 -11 -13 -2 -40
-6 -59 -9 -144 -23 -334 -76 -485 -136 -99 -39 -319 -149 -323 -161 -2 -5 -9
-9 -16 -9 -7 0 -41 -20 -77 -45 -35 -25 -73 -51 -83 -57 -197 -130 -468 -421
-623 -669 -132 -209 -260 -523 -298 -729 -3 -14 -7 -36 -11 -50 -3 -14 -6 -32
-6 -40 0 -8 -4 -31 -9 -50 -22 -94 -33 -512 -15 -615 3 -22 8 -57 10 -79 3
-21 9 -59 15 -85 6 -25 13 -57 15 -71 7 -38 14 -63 35 -140 194 -689 712
-1259 1401 -1543 80 -33 225 -80 280 -91 14 -3 43 -10 64 -15 22 -5 44 -8 48
-5 4 3 8 1 8 -4 0 -5 6 -9 13 -9 27 -2 114 -15 147 -22 19 -4 54 -7 78 -7 23
1 42 -2 42 -5 0 -10 332 -8 351 2 12 6 20 5 24 -1 4 -6 11 -8 16 -4 6 3 29 8
52 10 103 11 247 36 247 43 0 3 12 7 28 7 155 8 616 214 845 377 196 140 374
314 535 522 166 214 319 554 388 858 1 4 3 8 4 10 1 1 4 15 6 30 1 16 8 52 14
80 23 116 34 251 34 422 -1 152 -5 210 -28 353 -14 82 -45 216 -60 260 -8 23
-13 42 -11 42 4 0 -53 158 -63 174 -3 6 -7 16 -8 22 -2 14 -56 132 -92 199
-14 28 -31 60 -37 72 -5 13 -13 23 -17 23 -5 0 -8 5 -8 10 0 9 -77 132 -102
165 -5 6 -25 33 -45 60 -54 73 -63 83 -118 144 -81 91 -185 190 -270 258 -44
35 -87 70 -95 76 -174 142 -671 372 -817 380 -18 1 -33 5 -33 8 0 8 -129 31
-140 24 -6 -4 -10 -2 -10 4 0 5 -8 10 -17 9 -10 0 -29 3 -43 6 -63 14 -511 32
-522 21z"/>
</g>
</svg>
