<?xml version="1.0" encoding="utf-8"?>
<!-- Svg Vector Icons : http://www.onlinewebfonts.com/icon -->
<!DOCTYPE svg PUBLIC "-//W3C//DTD SVG 1.1//EN" "http://www.w3.org/Graphics/SVG/1.1/DTD/svg11.dtd">
<svg version="1.1" xmlns="http://www.w3.org/2000/svg" xmlns:xlink="http://www.w3.org/1999/xlink" x="0px" y="0px" viewBox="0 0 256 256" enable-background="new 0 0 256 256" xml:space="preserve">
<metadata> Svg Vector Icons : http://www.onlinewebfonts.com/icon </metadata>
<g><g><g><path fill="#000000" d="M171.1,47.5c-13.1,2.3-24.6,9.5-32.8,20.3l-2.5,3.3l-3.7-2.3c-20.2-12.1-46.1-8.9-62.6,8c-7.2,7.3-12.3,16.9-14.1,26.5l-0.6,3.1l-3.1,0.6c-9.6,1.8-19.6,7.1-26.8,14.3c-18.4,18.4-20,48-3.7,68.4c6.3,7.9,14.8,13.7,24.5,17c7.4,2.4,9.3,2.5,50.2,2.5h37.8l-1.8-0.9c-2.6-1.3-46.5-45.3-47.5-47.6c-1-2.4-0.9-4.5,0.4-6.8c1.9-3.6,2.4-3.7,16.3-3.7h12.1v-19.3c0-17.8,0.1-19.4,0.9-21.1c0.6-1.4,1.4-2.2,2.9-2.9c2-0.9,2.6-1,17.7-1h15.7l2.5,1.2c1.4,0.7,2.9,1.9,3.5,2.9c1.1,1.6,1.1,1.6,1.1,20.8v19.3h12c11.1,0,12.2,0.1,13.8,0.9c3.2,1.6,4.5,6,3,9.6c-1,2.3-44.9,46.3-47.5,47.6l-1.8,0.9h30.7c24.7,0,31.5-0.1,34.8-0.7c26-4.2,44.9-27.5,43.4-53.5c-0.7-12.9-5.5-23.7-14.8-33.3l-3.6-3.8l1.2-3.6c7.1-21.5-1.2-45.6-20.1-58.6C198.2,48.6,183.5,45.3,171.1,47.5z"/></g></g></g>
</svg>