<?xml version="1.0" encoding="utf-8"?>
<!DOCTYPE svg PUBLIC "-//W3C//DTD SVG 1.1//EN" "http://www.w3.org/Graphics/SVG/1.1/DTD/svg11.dtd">
<svg version="1.1" xmlns="http://www.w3.org/2000/svg" xmlns:xlink="http://www.w3.org/1999/xlink" x="0px" y="0px" viewBox="0 0 256 256" enable-background="new 0 0 256 256" xml:space="preserve" width="40" height="40">
<g><g><g><path fill="var(--svg-fill)" d="M66.8,10.1c-4.8,0.8-6.1,1.6-6.1,3.7c0,1.5,2.9,4.8,14.8,16.8l14.8,14.9l2.7,13.6l2.8,13.6L84.2,84.3L72.5,96l-13.6-2.9l-13.7-2.8l-15.1-15C19.1,64.2,14.8,60.3,14,60.7c-0.6,0.2-1.3,0.4-1.7,0.4c-1.5,0-2.3,5.4-2.3,15.2c0,12.3,1.4,18.6,6,28.4c8.6,18.1,20.3,27.7,38.7,31.8c6.7,1.5,28.6,1.5,35.7,0l4.8-1l6.8,7.7c3.7,4.2,23.3,26.8,43.6,50.2c20.3,23.3,38.1,43.5,39.6,44.8c6.4,5.4,14.8,8.5,23.7,8.5c12.7,0,24.3-6.4,31.3-17.2c8.9-13.9,7.3-33.3-3.8-44.9c-1.7-1.8-25.2-22.5-52.2-46.1l-49-42.8l0.9-5.2c1.5-8,1.5-29.6-0.1-36.3c-3.4-14.6-10.5-25.1-22.7-33.3C99.9,11.7,81.9,7.6,66.8,10.1z M213.6,201.6c4.2,2.6,5.6,7,3.6,11.5c-1.5,3.4-3.6,5-7.3,5.5c-7.2,1-12.5-7.1-9.1-13.8C203.2,200.6,209.4,198.9,213.6,201.6z"/><path fill="var(--svg-fill)" d="M211.8,35.6l-8.3,6.3l-2.8,7.1l-2.8,7.1L177,77L156.1,98l6.6,5.7c3.6,3.2,6.8,5.8,7.2,5.8c0.3,0,9.7-9.2,20.8-20.5l20.2-20.5l7-2.8l7-2.7l6.2-8.4l6.2-8.4l-8.5-8.4l-8.6-8.5L211.8,35.6z"/><path fill="var(--svg-fill)" d="M80.3,152.5c-1.1,0.7-14.9,14.4-30.6,30.4l-28.7,29.2v3.4v3.5l12.5,12.5c6.8,7,13.4,13,14.6,13.5c2.4,1,5.4,0.7,7.8-0.9c0.7-0.5,14-13.7,29.3-29.4l28-28.5v-3.3v-3.3l-11.3-13.3c-6.2-7.3-12.2-13.7-13.3-14.3C85.9,150.9,82.6,151,80.3,152.5z"/></g></g></g>
</svg>